<svg width="195" height="32" viewBox="0 0 195 32" fill="none" xmlns="http://www.w3.org/2000/svg">
<g clip-path="url(#clip0_1437_6948)">
<path d="M16.345 4.35268C23.1231 2.58743 29.3059 1.43494 33.779 0.358644C33.9955 0.307845 33.9478 -0.0128208 33.7249 -0.000121154C27.9019 0.31102 10.487 1.2381 10.487 1.2381C0.474204 2.03817 -1.35961 5.97189 0.814862 9.01346L4.74993 14.5188C4.86455 14.6807 5.11924 14.5981 5.12243 14.4013C5.15745 10.1913 7.7076 6.60687 16.3482 4.35268H16.345Z" fill="#66CC00"/>
<path d="M13.2089 26.4344C13.3585 26.6566 13.6578 26.5804 13.6228 26.2852C13.1707 23.4373 13.9348 15.9572 17.7521 12.2711C23.4032 6.81343 30.6174 4.66401 37.3701 1.06684C37.5516 0.968414 37.4465 0.692197 37.2459 0.742995C32.5436 1.92089 20.2417 5.17835 16.0933 6.87375C11.2732 8.84537 4.81663 14.8872 10.7734 23.2246L13.2089 26.4376V26.4344Z" fill="#66CC00"/>
<path d="M124.893 10.9777C125.759 10.9777 126.484 11.6619 126.484 12.5567C126.484 13.4515 125.759 14.1533 124.893 14.1533C124.028 14.1533 123.291 13.4691 123.291 12.5567C123.291 11.6444 124.022 10.9777 124.893 10.9777ZM124.893 13.9194C125.63 13.9194 126.198 13.3346 126.198 12.5567C126.198 11.7789 125.63 11.2116 124.893 11.2116C124.157 11.2116 123.583 11.7964 123.583 12.5567C123.583 13.317 124.151 13.9194 124.893 13.9194ZM124.274 11.6327H124.993C125.432 11.6327 125.642 11.8081 125.642 12.1649C125.642 12.4982 125.432 12.6386 125.151 12.6679L125.683 13.4866H125.373L124.87 12.6912H124.566V13.4866H124.279V11.6327H124.274ZM124.56 12.4573H124.864C125.116 12.4573 125.356 12.4456 125.356 12.1532C125.356 11.9076 125.145 11.8666 124.946 11.8666H124.566L124.56 12.4573Z" fill="#4B286D"/>
<path d="M135.818 10.9777H141.269C146.053 10.9777 148.843 13.896 148.843 18.6157C148.843 23.3354 146.053 26.2537 141.269 26.2537H135.818V10.9777ZM141.246 24.2419C144.614 24.2419 146.439 22.1832 146.439 18.6157C146.439 15.0482 144.614 12.9954 141.246 12.9954H138.111V24.2419H141.246Z" fill="#4B286D"/>
<path d="M150.498 12.4165C150.498 11.7088 151.077 11.1064 151.808 11.1064C152.539 11.1064 153.118 11.6854 153.118 12.4165C153.118 13.1475 152.539 13.7265 151.808 13.7265C151.077 13.7265 150.498 13.1475 150.498 12.4165ZM150.732 15.1828H152.878V26.2597H150.732V15.1828Z" fill="#4B286D"/>
<path d="M155.393 27.0316H157.539C157.709 28.3417 158.68 28.985 160.306 28.985C162.323 28.985 163.417 27.9323 163.417 25.897V24.6747C162.621 25.7684 161.423 26.3942 159.855 26.3942C156.785 26.3942 154.767 24.1191 154.767 20.6627C154.767 17.2063 156.761 14.9313 159.832 14.9313C161.464 14.9313 162.709 15.6155 163.505 16.756V15.1886H165.563V25.8561C165.563 28.7511 163.826 30.7278 160.282 30.7278C157.276 30.7278 155.603 29.2482 155.387 27.0375L155.393 27.0316ZM163.481 20.6569C163.481 18.1888 162.212 16.7735 160.241 16.7735C158.27 16.7735 157.001 18.2766 157.001 20.6569C157.001 23.0372 158.27 24.5402 160.241 24.5402C162.212 24.5402 163.481 23.1249 163.481 20.6569Z" fill="#4B286D"/>
<path d="M167.757 12.4165C167.757 11.7088 168.336 11.1064 169.067 11.1064C169.798 11.1064 170.377 11.6854 170.377 12.4165C170.377 13.1475 169.798 13.7265 169.067 13.7265C168.336 13.7265 167.757 13.1475 167.757 12.4165ZM167.991 15.1828H170.137V26.2597H167.991V15.1828Z" fill="#4B286D"/>
<path d="M173.423 23.7915V16.943H171.64V15.1826H173.423V12.007H175.57V15.1826H177.804V16.943H175.57V23.5985C175.57 24.2418 175.891 24.546 176.839 24.546H177.804V26.2654C177.33 26.3063 176.88 26.3297 176.494 26.3297C174.5 26.3297 173.423 25.6455 173.423 23.7915Z" fill="#4B286D"/>
<path d="M186.366 24.7566C185.618 25.9146 184.372 26.517 182.758 26.517C180.377 26.517 178.81 25.359 178.81 23.2302C178.81 21.4464 179.88 20.0954 182.974 19.7971L184.606 19.6275C185.676 19.4989 186.261 19.1363 186.261 18.2356C186.261 17.2063 185.723 16.6448 183.986 16.6448C182.249 16.6448 181.518 17.1361 181.413 18.6392H179.29C179.418 16.4051 180.664 14.9254 183.992 14.9254C187.32 14.9254 188.372 16.2589 188.372 18.1888V24.0489C188.372 24.394 188.542 24.6045 188.975 24.6045H189.577V26.2596C189.255 26.3006 188.869 26.324 188.524 26.324C187.15 26.324 186.53 25.8327 186.378 24.7566H186.366ZM183.085 24.8443C184.653 24.8443 186.261 23.9671 186.261 21.885V20.727C185.939 20.9844 185.489 21.113 184.887 21.1774L183.343 21.347C181.559 21.5634 181.027 22.1833 181.027 23.1717C181.027 24.1601 181.693 24.8443 183.085 24.8443Z" fill="#4B286D"/>
<path d="M190.893 23.7915V10.9777H193.039V23.5985C193.039 24.2419 193.32 24.546 194.11 24.546H194.905V26.2654C194.478 26.3063 194.045 26.3297 193.706 26.3297C191.881 26.3297 190.893 25.6455 190.893 23.7915Z" fill="#4B286D"/>
<path d="M63.9299 13.9428V10.9718H53.3384V26.2537H63.9299V23.154H57.6311V19.7678H62.8713V16.7968H57.6311V13.9428H63.9299Z" fill="#4B286D"/>
<path d="M82.6215 23.2359H76.0011V10.9718H71.6558V26.2537H82.6215V23.2359Z" fill="#4B286D"/>
<path d="M117.595 16.7968C114.665 16.136 113.641 16.0599 113.641 14.8961C113.641 13.8142 115.092 13.4749 115.928 13.4749C117.285 13.4749 118.876 13.7908 120.496 14.6271L121.677 11.814C120.016 10.9016 117.875 10.5273 115.817 10.5273C111.776 10.5273 109.062 12.1649 108.951 15.364C108.834 18.2765 111.202 19.3701 113.384 19.8205C115.483 20.2533 117.612 20.6276 117.659 21.8733C117.7 23.0254 116.665 23.5167 114.711 23.5167C112.904 23.5167 111.22 22.9377 109.501 22.2183L108.5 25.2712C110.471 26.1134 112.477 26.5754 114.548 26.5754C117.419 26.5754 119.513 26.1309 121.057 24.6805C122.127 23.6863 122.478 22.4873 122.478 21.3411C122.472 18.9198 120.969 17.5571 117.595 16.7968Z" fill="#4B286D"/>
<path d="M47.1801 13.9837V10.9718H33.8516V13.9837H38.3548V26.2537H42.671V13.9837H47.1801Z" fill="#4B286D"/>
<path d="M97.4353 10.9718V20.6802C97.4353 21.4405 97.4353 21.651 97.3886 21.9493C97.254 22.8733 96.3534 23.4114 94.9205 23.4289C93.862 23.4114 93.0841 23.1014 92.7215 22.5458C92.5402 22.2592 92.4525 21.7504 92.4525 20.9316V10.9718H87.9492V21.5048C87.9492 22.9669 88.1422 23.6219 88.8031 24.4524C89.8909 25.8151 92.008 26.5286 94.9322 26.5286C94.9615 26.5286 94.9966 26.5286 95.0258 26.5286C95.0433 26.5286 95.0667 26.5286 95.0901 26.5286C98.9969 26.5286 101.015 25.0021 101.599 23.5751C101.892 22.885 101.915 22.5575 101.915 21.1597V10.9718H97.4353Z" fill="#4B286D"/>
</g>
<defs><clipPath id="clip0_1437_6948"><rect width="195" height="32" fill="white"/></clipPath></defs>
</svg>